<?xml version="1.0" standalone="no"?>
<!DOCTYPE svg PUBLIC "-//W3C//DTD SVG 20010904//EN"
 "http://www.w3.org/TR/2001/REC-SVG-20010904/DTD/svg10.dtd">
<svg version="1.0" xmlns="http://www.w3.org/2000/svg"
 width="974.000000pt" height="974.000000pt" viewBox="0 0 974.000000 974.000000"
 preserveAspectRatio="xMidYMid meet">
<metadata>
Created by potrace 1.14, written by Peter Selinger 2001-2017
</metadata>
<g transform="translate(0.000000,974.000000) scale(0.100000,-0.100000)"
fill="#000000" stroke="none">
<path d="M6201 9482 c-6 -2 -8 -9 -4 -15 4 -7 -1 -6 -10 2 -12 9 -17 10 -17 2
0 -7 -4 -9 -10 -6 -5 3 -10 1 -10 -6 0 -10 -3 -10 -11 -2 -8 8 -20 8 -35 3
-12 -5 -33 -7 -44 -5 -18 3 -20 1 -10 -9 9 -12 5 -13 -24 -6 -18 4 -40 4 -47
-1 -8 -5 -22 -6 -33 -3 -11 4 -16 2 -12 -4 9 -15 -15 -21 -41 -11 -15 5 -23 5
-23 -2 0 -6 -4 -7 -10 -4 -5 3 -10 2 -10 -4 0 -6 -7 -8 -15 -5 -9 4 -15 0 -15
-7 0 -11 -2 -11 -9 0 -8 12 -13 12 -35 -2 -17 -12 -27 -13 -32 -6 -4 8 -10 6
-16 -5 -7 -13 -13 -14 -22 -6 -10 7 -17 6 -26 -5 -7 -9 -20 -13 -29 -10 -9 2
-23 0 -31 -5 -9 -5 -19 -5 -27 2 -10 8 -13 6 -13 -5 0 -9 -5 -19 -12 -23 -6
-4 -8 -3 -4 4 3 6 2 13 -4 17 -5 3 -10 1 -10 -5 0 -7 -6 -10 -12 -7 -7 2 -24
0 -38 -6 -36 -15 -51 -17 -44 -6 3 5 10 6 16 3 7 -5 8 -2 4 5 -6 9 -12 9 -25
-3 -10 -9 -21 -13 -24 -9 -4 3 -7 -2 -7 -12 0 -15 -2 -16 -17 -4 -15 12 -16
12 -10 -4 6 -15 4 -16 -13 -7 -15 8 -20 8 -20 -1 0 -8 -4 -9 -13 0 -10 7 -17
7 -24 0 -7 -7 -13 -7 -17 -1 -7 12 -46 4 -46 -10 0 -7 -5 -7 -13 0 -15 13 -43
-1 -33 -16 4 -7 -3 -9 -18 -6 -14 2 -28 -1 -31 -6 -5 -8 -11 -7 -21 1 -11 9
-14 8 -14 -6 0 -15 -2 -16 -17 -4 -11 10 -14 10 -9 2 5 -9 -1 -13 -21 -14 -15
-1 -32 -1 -36 0 -5 1 -6 -3 -2 -9 3 -5 -1 -10 -10 -10 -10 0 -13 -5 -9 -12 5
-9 2 -9 -9 1 -15 12 -21 9 -18 -11 0 -5 -2 -7 -7 -6 -4 1 -18 -4 -31 -11 -19
-11 -22 -11 -16 1 3 7 0 5 -8 -4 -11 -14 -16 -15 -27 -5 -10 10 -10 8 -1 -10
10 -19 9 -21 -10 -18 -18 4 -19 2 -7 -12 12 -15 11 -15 -10 -4 -12 6 -22 8
-21 4 1 -4 1 -17 0 -28 -1 -17 -3 -18 -11 -5 -8 13 -10 13 -10 -2 0 -11 -7
-15 -25 -14 -13 2 -22 -1 -19 -5 3 -5 -2 -9 -10 -9 -9 0 -16 -6 -16 -12 0 -9
-4 -8 -11 2 -9 12 -10 11 -6 -6 4 -18 1 -20 -16 -16 -15 4 -18 2 -12 -8 6 -10
4 -12 -10 -6 -16 6 -16 4 -4 -10 13 -16 12 -16 -7 -6 -18 10 -21 9 -20 -6 0
-9 -5 -17 -11 -18 -24 -3 -25 -4 -14 -18 9 -11 7 -13 -11 -12 -14 1 -23 -5
-24 -14 -2 -30 -4 -32 -21 -19 -14 12 -16 12 -11 -1 5 -13 -16 -45 -25 -38 -1
2 -20 -14 -41 -34 -22 -21 -34 -38 -28 -38 7 0 12 4 12 9 0 5 8 12 17 15 13 5
11 0 -6 -18 -19 -20 -27 -23 -38 -14 -8 6 -13 7 -12 2 1 -5 1 -17 0 -28 -1
-16 -3 -17 -18 -5 -11 10 -14 10 -9 2 4 -8 2 -13 -6 -13 -9 0 -9 -3 2 -10 14
-9 7 -15 -14 -11 -5 1 -6 -5 -3 -13 4 -9 -4 -26 -18 -40 -25 -25 -34 -42 -16
-31 5 3 13 0 17 -6 4 -7 3 -9 -4 -5 -6 3 -13 2 -17 -4 -4 -6 -11 -8 -16 -4
-12 7 -41 -15 -34 -26 3 -5 -2 -15 -11 -24 -8 -9 -12 -21 -8 -28 6 -11 5 -11
-8 0 -13 10 -15 9 -13 -12 2 -18 -1 -23 -14 -19 -11 3 -22 -5 -30 -21 -8 -14
-19 -22 -25 -19 -6 4 -4 -2 4 -12 8 -10 10 -16 3 -12 -6 4 -14 3 -18 -3 -4 -6
-11 -7 -17 -4 -7 4 -8 2 -4 -5 4 -6 11 -9 16 -6 4 3 7 -3 5 -12 -1 -10 -10
-17 -19 -17 -13 2 -14 -1 -5 -12 7 -8 7 -14 1 -14 -5 0 -12 -8 -16 -17 -3 -10
-9 -25 -12 -33 -5 -13 -4 -13 5 0 6 9 11 10 11 3 0 -6 -6 -18 -14 -26 -8 -7
-16 -25 -18 -38 -2 -15 -9 -23 -18 -21 -12 3 -12 1 -3 -9 9 -9 7 -16 -7 -31
-19 -20 -17 -53 3 -41 6 3 7 1 3 -5 -4 -7 -13 -12 -20 -12 -9 0 -12 -11 -10
-34 1 -20 -3 -40 -11 -46 -8 -6 -11 -19 -8 -27 4 -11 2 -14 -5 -9 -8 5 -11 -2
-8 -23 2 -17 -1 -28 -5 -25 -9 5 -13 -9 -10 -33 1 -7 -5 -13 -14 -13 -8 0 -15
-5 -15 -11 0 -5 4 -7 10 -4 6 3 7 -1 4 -9 -3 -9 -10 -16 -14 -16 -4 0 -6 -14
-4 -31 4 -28 2 -30 -13 -18 -15 13 -15 12 -6 -5 7 -13 8 -28 2 -44 -7 -17 -6
-29 3 -41 10 -12 8 -12 -8 2 -21 17 -21 17 -19 -8 2 -14 -1 -23 -6 -19 -5 3
-9 0 -9 -7 0 -7 -3 -9 -6 -6 -4 4 -3 12 2 20 5 7 1 4 -8 -6 -10 -11 -18 -25
-18 -33 0 -8 -8 -14 -17 -14 -15 0 -16 -2 -3 -10 11 -7 11 -10 2 -10 -7 0 -10
-4 -7 -10 3 -5 2 -10 -3 -10 -6 0 -13 -7 -16 -16 -3 -8 -2 -12 3 -9 5 3 13 0
17 -6 4 -8 3 -9 -4 -5 -14 9 -35 -40 -25 -57 10 -17 11 -47 1 -47 -5 0 -7 -4
-3 -9 3 -5 1 -12 -4 -15 -5 -4 -12 -2 -16 4 -4 6 -11 8 -16 4 -5 -3 -7 -9 -4
-14 3 -5 -4 -7 -15 -5 -11 2 -18 0 -15 -4 2 -5 -2 -14 -9 -20 -11 -10 -17 -8
-25 6 -6 10 -11 13 -11 6 0 -7 -7 -10 -15 -7 -8 4 -15 2 -16 -2 0 -5 -2 -20
-3 -32 -2 -13 3 -26 11 -29 7 -3 10 -9 7 -14 -3 -5 -10 -7 -15 -4 -5 4 -9 1
-9 -5 0 -7 -6 -8 -19 0 -13 7 -20 7 -23 -1 -2 -5 -13 -11 -25 -12 -15 -1 -19
-5 -13 -12 6 -7 3 -11 -8 -12 -39 -3 -85 -23 -53 -23 7 0 9 -5 5 -12 -5 -7 -7
-25 -6 -39 1 -15 -5 -34 -13 -42 -8 -9 -15 -22 -15 -31 0 -8 -4 -17 -10 -21
-5 -3 -6 -13 -3 -22 4 -11 3 -14 -5 -9 -8 4 -10 2 -6 -7 3 -8 0 -18 -6 -22 -8
-5 -8 -11 1 -21 9 -11 9 -14 0 -14 -8 0 -9 -5 -2 -18 6 -11 6 -24 1 -32 -5 -9
-4 -20 2 -28 9 -10 7 -14 -10 -18 -14 -4 -19 -12 -17 -25 2 -10 0 -19 -6 -19
-5 0 -9 -5 -9 -11 0 -5 6 -7 13 -3 6 4 4 -2 -6 -13 -13 -14 -15 -23 -7 -28 8
-5 8 -10 0 -20 -8 -9 -8 -15 0 -20 7 -4 7 -12 0 -26 -6 -10 -7 -19 -2 -19 4 0
8 -9 8 -19 0 -15 -4 -17 -13 -10 -9 8 -11 6 -8 -10 2 -11 1 -20 -3 -20 -4 1
-14 1 -22 0 -13 -1 -13 -2 0 -11 13 -8 12 -10 -4 -10 -11 0 -17 -3 -13 -6 3
-4 0 -19 -9 -35 -11 -23 -12 -29 -2 -29 8 0 7 -4 -4 -10 -10 -6 -14 -18 -11
-30 3 -13 0 -20 -8 -20 -11 0 -11 -2 1 -10 11 -7 11 -10 2 -10 -7 0 -11 -4 -8
-9 3 -5 -1 -12 -10 -15 -13 -5 -14 -9 -5 -20 9 -10 9 -15 1 -18 -13 -4 -20
-68 -8 -68 5 0 4 -9 -2 -20 -7 -13 -7 -20 -1 -20 7 0 7 -9 1 -26 -13 -33 -13
-37 2 -28 7 4 8 3 4 -4 -4 -7 -15 -12 -24 -12 -13 0 -14 -2 -3 -9 10 -6 10
-10 1 -16 -6 -4 -9 -13 -6 -20 2 -7 -2 -16 -11 -19 -12 -5 -13 -9 -3 -21 10
-12 9 -15 -5 -15 -10 0 -15 -5 -12 -14 3 -7 -4 -21 -16 -31 -15 -13 -17 -20
-9 -23 9 -3 10 -8 3 -15 -9 -11 -11 -17 -11 -34 0 -5 -5 -1 -10 7 -8 13 -10
12 -10 -2 0 -17 -10 -21 -52 -21 -10 0 -15 -3 -13 -7 3 -4 -2 -10 -9 -13 -8
-3 -17 -1 -20 6 -2 7 -5 1 -5 -13 -1 -14 -5 -20 -9 -14 -8 11 -53 14 -46 3 5
-9 -25 -21 -36 -14 -5 3 -11 1 -15 -5 -3 -5 -15 -10 -26 -10 -11 0 -17 -4 -14
-10 3 -5 0 -10 -7 -11 -7 0 -24 -3 -38 -5 -14 -2 -37 -5 -52 -6 -16 -1 -28 -5
-28 -10 0 -4 -7 -5 -15 -2 -8 4 -15 1 -15 -6 0 -9 -3 -10 -13 -2 -10 9 -19 7
-35 -4 -12 -8 -27 -12 -32 -9 -6 4 -22 0 -35 -9 -18 -12 -25 -12 -28 -3 -4 9
-6 9 -6 0 -1 -7 -8 -10 -16 -7 -8 4 -15 1 -15 -6 0 -7 -7 -10 -15 -6 -8 3 -15
0 -15 -6 0 -6 -3 -8 -6 -5 -4 3 -15 2 -25 -4 -11 -5 -19 -6 -19 -1 0 4 -9 8
-20 8 -12 0 -19 -5 -16 -12 3 -8 -2 -11 -14 -9 -10 2 -24 -3 -31 -11 -9 -11
-15 -12 -25 -3 -11 9 -14 8 -14 0 0 -7 -4 -9 -10 -6 -6 3 -10 1 -10 -4 0 -6
-11 -11 -24 -11 -14 0 -28 -4 -31 -10 -9 -15 -37 -12 -30 3 4 6 -3 1 -15 -13
-12 -14 -19 -19 -15 -12 9 17 2 15 -25 -8 -13 -11 -30 -20 -38 -20 -11 0 -12
-3 -4 -13 8 -10 6 -13 -11 -14 -12 -1 -23 -7 -25 -13 -2 -5 -8 -8 -13 -4 -5 3
-9 0 -9 -6 0 -6 -4 -8 -10 -5 -5 3 -10 1 -10 -4 0 -6 -5 -11 -11 -11 -5 0 -7
5 -3 12 5 7 3 8 -5 4 -7 -5 -10 -15 -6 -23 5 -14 3 -14 -12 -2 -11 9 -14 10
-9 2 7 -13 -7 -19 -29 -13 -5 2 -20 2 -32 2 -12 -1 -25 3 -28 8 -4 6 -11 7
-17 4 -7 -5 -9 -2 -6 7 4 11 -6 14 -46 14 -28 0 -57 5 -63 12 -7 6 -22 9 -34
6 -13 -4 -20 -2 -16 3 3 5 -6 9 -20 8 -13 0 -29 -7 -34 -15 -6 -10 -9 -11 -9
-1 0 10 -6 10 -27 -1 -16 -8 -34 -12 -42 -9 -9 3 -11 0 -6 -8 6 -10 4 -12 -9
-7 -10 4 -19 1 -23 -8 -4 -12 -9 -13 -19 -4 -11 9 -14 8 -14 -1 0 -7 -7 -10
-15 -6 -8 3 -15 1 -15 -4 0 -5 -9 -7 -20 -5 -11 2 -20 0 -20 -5 0 -5 -7 -7
-15 -4 -9 4 -15 0 -15 -9 0 -11 -6 -13 -22 -9 -15 4 -19 2 -13 -7 6 -10 3 -11
-15 -1 -18 10 -21 9 -15 -1 6 -9 2 -11 -13 -7 -12 4 -22 2 -22 -3 0 -5 -7 -9
-15 -9 -8 0 -15 -6 -15 -12 0 -9 -4 -8 -10 2 -6 10 -10 11 -10 3 0 -7 -12 -13
-26 -13 -14 0 -35 -5 -46 -11 -13 -7 -18 -7 -14 -1 3 6 2 14 -4 17 -6 4 -9 3
-8 -2 6 -17 -26 -39 -50 -35 -14 3 -22 1 -19 -4 3 -5 -14 -9 -36 -9 -26 1 -47
-5 -55 -15 -8 -8 -11 -9 -7 -3 6 13 -20 8 -41 -8 -6 -5 -15 -5 -19 -1 -5 4 -5
1 -1 -5 4 -7 2 -14 -3 -14 -32 -4 -36 -6 -34 -15 1 -7 -9 -9 -24 -6 -18 3 -24
1 -19 -6 4 -8 2 -10 -7 -6 -8 3 -17 -2 -20 -10 -4 -9 -12 -16 -18 -16 -7 0 -8
5 -3 13 5 7 0 3 -11 -9 -11 -12 -29 -24 -40 -26 -11 -2 -19 -10 -17 -17 2 -9
-3 -9 -19 0 -16 8 -20 8 -14 -1 4 -7 -1 -13 -14 -17 -12 -3 -18 -10 -14 -17 4
-6 -1 -5 -10 2 -14 12 -16 11 -12 -7 2 -11 -1 -24 -7 -27 -6 -4 -8 -2 -4 4 3
6 2 13 -4 17 -5 3 -10 -1 -10 -9 0 -9 -6 -16 -14 -16 -8 0 -16 -4 -18 -10 -2
-5 -15 -11 -30 -12 -15 -1 -26 -5 -26 -8 2 -23 -5 -31 -25 -28 -17 2 -21 -1
-19 -16 2 -11 -1 -15 -7 -11 -6 3 -11 1 -11 -5 0 -6 -4 -8 -10 -5 -5 3 -10 1
-10 -4 0 -6 -7 -11 -15 -11 -8 0 -15 -4 -15 -10 0 -5 -9 -10 -20 -10 -12 0
-20 -7 -20 -16 0 -14 -2 -15 -17 -3 -15 13 -15 12 -4 -9 12 -22 11 -23 -9 -12
-15 8 -20 8 -16 1 4 -6 2 -11 -4 -11 -6 0 -8 -4 -5 -10 3 -5 -1 -10 -10 -10
-9 0 -13 -5 -10 -10 3 -6 -2 -13 -12 -17 -31 -12 -43 -29 -30 -42 6 -6 9 -11
7 -12 -56 -9 -72 -17 -64 -30 4 -8 1 -8 -15 0 -17 10 -20 9 -15 -4 5 -11 2
-14 -12 -8 -11 4 -15 3 -10 -5 3 -6 2 -13 -4 -17 -5 -3 -10 0 -10 7 0 8 -5 6
-11 -5 -6 -10 -22 -22 -35 -28 -16 -6 -23 -13 -18 -21 5 -8 0 -7 -11 2 -11 9
-16 10 -11 3 4 -8 2 -13 -4 -13 -6 0 -9 -4 -6 -9 4 -5 -4 -7 -16 -3 -20 5 -21
3 -10 -10 10 -13 9 -15 -10 -14 -14 1 -22 -4 -20 -12 1 -7 -6 -16 -15 -19 -29
-11 -43 -29 -32 -40 6 -6 4 -10 -6 -11 -8 -1 -22 -3 -30 -4 -10 -1 -12 -5 -5
-13 8 -9 4 -14 -11 -18 -11 -3 -18 -10 -14 -16 4 -7 -3 -10 -17 -8 l-23 2 -3
-2402 -2 -2403 4261 0 c2343 0 4258 4 4255 8 -2 4 -1 14 4 22 5 7 4 25 -2 39
-5 14 -6 22 -2 18 8 -8 34 57 34 86 0 9 5 17 11 17 5 0 7 -5 3 -12 -4 -6 -3
-8 4 -4 6 3 9 15 7 26 -3 13 1 17 11 13 8 -3 14 0 14 7 0 6 5 8 12 4 17 -10
58 -11 64 -2 3 5 10 6 15 3 5 -4 9 6 9 20 0 18 4 24 13 19 8 -5 8 -2 -2 9 -10
13 -10 17 -1 17 7 0 10 7 7 15 -4 8 -2 17 4 21 6 4 6 11 -2 20 -6 8 -7 14 -2
14 11 0 11 29 0 47 -4 6 -3 15 3 18 8 5 7 11 -1 21 -9 11 -9 14 1 14 10 0 10
3 1 14 -8 10 -9 16 -1 21 6 3 7 12 3 18 -10 17 -11 47 -1 47 5 0 4 9 -2 20 -7
13 -7 20 -1 20 7 0 7 9 -1 25 -6 13 -16 22 -21 18 -7 -4 -8 1 -3 12 5 14 4 16
-7 7 -10 -9 -14 -8 -14 3 0 8 4 15 8 15 4 0 6 8 4 18 -2 11 3 19 10 19 7 0 11
-7 8 -16 -3 -9 2 -6 12 7 13 17 20 20 30 12 9 -8 15 -8 20 0 3 6 11 7 17 4 8
-5 9 -1 4 11 -5 15 -4 16 8 6 10 -8 16 -9 21 -1 3 5 15 10 26 10 11 0 22 6 25
14 3 8 12 12 20 9 8 -3 14 0 14 7 0 6 5 8 12 4 7 -5 8 -3 4 5 -5 8 -2 11 9 9
10 -2 19 3 21 10 1 7 0 8 -3 2 -2 -5 -9 -8 -14 -4 -5 3 -15 2 -21 -3 -19 -11
-38 -12 -38 -2 0 6 -4 8 -9 5 -4 -3 -17 2 -27 10 -10 9 -12 13 -4 9 10 -4 9
-2 -2 8 -10 8 -14 18 -10 22 4 5 2 5 -5 1 -7 -4 -10 -14 -7 -24 5 -15 4 -15
-6 1 -6 10 -9 25 -6 32 3 8 0 17 -6 21 -6 4 -8 3 -5 -2 3 -6 2 -16 -4 -24 -7
-12 -9 -10 -9 8 0 12 -5 22 -11 22 -5 0 -7 4 -4 10 4 6 -1 7 -12 3 -15 -6 -16
-5 -5 9 11 14 10 16 -10 11 -16 -3 -19 -2 -10 5 11 7 10 10 -3 16 -10 4 -15
12 -11 21 3 9 -1 18 -9 21 -8 4 -12 10 -9 15 3 5 0 9 -6 9 -6 0 -8 4 -5 10 3
5 -1 10 -10 10 -9 0 -13 4 -10 10 3 5 -4 10 -16 10 -18 0 -19 2 -9 15 11 13
10 14 -4 9 -9 -4 -16 -3 -15 2 4 22 -2 34 -17 34 -8 0 -12 4 -9 10 6 9 -8 15
-29 11 -5 -1 -3 6 5 15 9 12 9 15 2 10 -12 -7 -18 5 -14 27 1 5 -3 6 -9 2 -6
-3 -7 -11 -4 -17 5 -7 2 -8 -5 -4 -7 5 -10 14 -7 22 3 8 2 13 -2 11 -4 -1 -8
3 -10 8 -6 18 -35 45 -49 45 -8 0 -11 5 -8 10 3 6 -1 13 -9 16 -9 3 -16 13
-16 21 0 8 -4 12 -8 9 -4 -2 -8 11 -8 29 0 18 4 31 8 29 5 -3 6 -10 3 -15 -4
-5 -1 -9 4 -9 6 0 11 9 11 20 0 11 5 20 11 20 5 0 8 -4 5 -8 -3 -5 1 -9 9 -9
8 0 13 3 12 6 -1 3 2 7 7 8 5 1 13 7 17 15 7 10 9 10 9 0 0 -10 3 -10 14 0 8
7 11 18 8 23 -2 6 1 4 9 -2 16 -15 33 -17 24 -3 -3 6 1 10 9 10 9 0 16 5 16
10 0 6 5 10 11 10 5 0 7 -4 4 -10 -3 -6 1 -7 10 -4 9 4 14 12 11 20 -3 8 2 11
17 9 22 -4 22 -4 2 11 l-20 16 20 -4 c15 -2 21 3 24 22 1 14 8 28 14 32 7 4 7
11 -2 22 -8 9 -11 16 -7 16 4 0 -1 11 -10 25 -9 14 -20 23 -24 20 -4 -3 -10 1
-13 9 -3 7 -15 16 -26 19 -14 3 -19 1 -14 -6 8 -14 -26 11 -45 33 -12 13 -13
12 -7 -4 6 -19 5 -19 -15 -1 -11 10 -20 14 -20 9 0 -5 -5 -2 -10 6 -6 10 -10
11 -10 3 0 -9 -7 -10 -25 -3 -15 6 -26 6 -30 0 -4 -7 -13 -6 -26 0 -10 6 -19
7 -19 2 0 -5 -7 -9 -15 -9 -8 0 -12 4 -9 9 3 4 -15 13 -40 20 -29 7 -46 18
-46 27 0 12 -3 11 -13 -3 -10 -14 -18 -15 -39 -7 -14 5 -29 7 -32 4 -3 -3 -17
2 -30 11 -16 10 -27 12 -31 5 -5 -6 -12 -4 -19 7 -9 12 -15 14 -20 6 -5 -9
-13 -8 -29 3 -14 9 -28 11 -36 6 -8 -5 -26 -5 -43 1 -26 9 -27 11 -12 23 16
11 16 13 -5 24 -31 17 -61 22 -61 10 0 -6 -8 -6 -20 1 -11 6 -20 7 -20 3 0 -4
-11 -8 -25 -8 -14 0 -25 3 -25 6 0 4 -7 10 -16 13 -10 4 -13 2 -8 -7 6 -9 4
-9 -7 -1 -8 6 -22 10 -31 9 -10 -2 -18 0 -18 4 0 9 -62 7 -78 -3 -7 -4 -12 -2
-12 5 0 10 -3 10 -12 1 -7 -7 -17 -8 -30 -1 -14 8 -18 6 -18 -7 0 -14 -2 -15
-17 -3 -15 12 -16 12 -10 -4 5 -14 3 -16 -10 -9 -9 5 -24 7 -35 4 -12 -3 -18
0 -16 9 2 9 -5 14 -19 13 -13 -1 -20 3 -16 9 3 6 7 24 7 39 1 27 -1 29 -26 24
-19 -4 -27 -2 -25 7 1 7 -6 11 -16 9 -12 -2 -21 4 -24 17 -3 12 -9 21 -14 21
-5 0 -8 6 -7 13 2 6 -3 11 -10 9 -9 -2 -12 6 -10 25 2 19 -2 28 -11 28 -8 0
-16 6 -19 14 -3 9 0 11 9 5 12 -7 12 -5 0 9 -7 9 -17 15 -21 12 -5 -3 -6 5 -2
17 3 15 2 19 -7 14 -13 -8 -41 10 -41 27 0 6 6 3 13 -7 11 -15 14 -16 14 -3 0
8 -12 21 -26 27 -25 12 -25 13 -6 21 l20 8 -20 1 c-11 2 -23 2 -27 1 -4 0 -5
8 -3 19 2 11 0 20 -6 20 -5 0 -8 3 -8 8 4 21 -3 32 -18 32 -14 0 -15 2 -5 9
11 7 10 9 -3 15 -9 3 -13 11 -10 16 4 6 -4 20 -17 31 -13 11 -17 18 -10 14 16
-8 15 -3 -5 40 -9 19 -24 37 -33 40 -9 3 -28 17 -41 31 -20 21 -23 34 -22 82
3 86 7 106 32 146 15 23 24 55 25 84 2 55 15 102 27 102 4 0 6 10 3 23 -12 48
-12 87 -1 94 14 10 19 43 6 43 -6 0 -5 9 1 20 6 11 7 20 2 20 -5 0 -9 7 -9 15
0 8 4 12 8 9 4 -2 9 6 11 18 2 13 9 22 17 20 11 -2 12 0 3 11 -9 10 -7 16 8
27 15 11 17 17 8 27 -9 11 -8 13 3 11 8 -2 15 7 17 20 2 12 8 22 13 22 6 0 7
-5 3 -12 -4 -7 -3 -8 5 -4 6 4 9 11 6 16 -2 4 0 21 5 37 10 26 14 28 55 26 25
-1 47 2 51 9 4 6 3 8 -4 4 -6 -3 -13 -2 -17 3 -3 6 -12 8 -20 5 -10 -4 -18 3
-24 17 -10 29 -3 52 13 42 6 -4 4 2 -4 12 -12 15 -12 17 -1 10 11 -6 13 -4 8
8 -4 10 -1 17 5 17 9 0 9 3 1 11 -8 8 -8 20 -3 35 5 13 6 24 2 24 -4 0 -8 9
-8 19 0 11 4 17 8 15 8 -5 10 0 12 51 1 17 6 36 10 43 4 7 2 12 -5 12 -8 0 -9
3 -3 9 5 6 7 53 4 111 -3 56 -2 104 3 107 4 2 3 12 -2 21 -5 9 -5 26 0 39 5
13 5 23 0 23 -5 0 -8 11 -6 25 1 17 -4 29 -17 36 -14 8 -16 14 -9 23 7 9 6 19
-4 34 -9 11 -11 23 -6 26 10 7 9 31 -2 42 -4 4 -2 13 4 20 6 8 7 14 0 18 -6 4
-8 13 -4 21 3 9 -1 23 -8 32 -10 11 -10 14 -2 9 9 -5 11 -2 7 9 -4 9 -13 14
-20 11 -9 -3 -11 0 -7 11 5 12 3 14 -7 8 -10 -6 -12 -4 -7 10 4 9 2 25 -5 33
-11 13 -11 14 2 7 12 -7 13 -6 3 7 -7 8 -9 19 -5 24 4 4 -1 2 -11 -5 -9 -8
-20 -11 -24 -7 -3 3 -1 6 5 6 7 0 12 7 12 16 0 8 -4 13 -8 10 -5 -3 -9 1 -10
9 -1 8 -3 22 -4 30 -1 8 -5 12 -10 9 -4 -3 -8 0 -8 6 0 6 -5 8 -12 4 -7 -4 -8
-3 -4 5 4 6 12 9 17 6 5 -3 6 1 3 9 -3 9 -11 16 -16 16 -6 0 -8 6 -5 13 3 8 1
20 -5 28 -8 11 -8 9 -4 -6 l6 -20 -16 20 c-8 11 -20 19 -25 17 -6 -1 -8 2 -4
7 3 6 13 8 23 5 12 -4 12 -2 -3 7 -39 25 -43 33 -26 46 14 12 14 12 -3 6 -13
-4 -17 -3 -12 5 4 7 3 12 -3 12 -7 0 -7 8 -2 23 4 12 6 28 3 36 -3 9 0 11 8 6
9 -5 10 -2 5 14 -4 15 -2 21 8 21 11 0 13 7 9 22 -4 15 -2 19 7 13 10 -6 11
-3 2 14 -10 17 -9 21 3 21 8 0 18 5 22 12 4 6 3 8 -3 5 -6 -4 -14 0 -17 9 -3
8 -2 12 4 9 5 -3 9 3 10 12 2 56 4 62 19 50 12 -10 13 -9 1 13 -12 23 -12 24
4 11 14 -12 16 -12 10 3 -3 9 -2 16 4 16 5 0 12 9 15 21 3 12 9 19 14 16 5 -3
9 2 10 11 4 42 11 79 18 97 8 19 7 19 -11 5 -18 -14 -18 -14 -5 3 7 9 19 17
27 17 16 0 26 16 31 49 2 14 5 36 7 49 3 21 26 55 26 39 0 -4 6 -2 14 5 8 7
11 17 8 22 -3 5 3 6 13 2 16 -6 16 -4 4 11 -8 9 -9 14 -4 11 6 -4 17 2 24 14
9 14 9 18 1 13 -9 -5 -10 -1 -5 16 4 13 12 26 16 27 5 2 9 10 9 18 0 8 6 14
13 14 8 0 7 4 -3 10 -12 8 -11 11 8 16 16 5 20 9 12 14 -9 6 -8 11 3 21 7 7
12 21 9 31 -2 10 0 18 6 18 6 0 14 9 17 20 4 11 11 17 17 14 7 -5 8 -2 3 6 -6
10 -11 9 -22 -5 -7 -11 -13 -14 -13 -7 0 6 9 17 20 25 11 8 17 18 12 23 -4 5
-3 6 2 1 5 -4 16 -1 25 6 28 24 51 28 45 9 -3 -9 2 -4 11 11 10 18 22 26 31
23 8 -3 14 -1 14 4 0 5 9 7 19 5 15 -3 18 0 14 12 -5 13 -2 15 11 10 10 -4 15
-3 11 3 -3 6 5 10 18 10 16 0 42 16 71 45 26 25 41 45 34 45 -9 0 -9 3 2 9 8
6 17 8 21 5 5 -2 6 4 4 15 -2 14 1 18 10 15 10 -4 12 0 8 15 -3 13 -1 21 7 21
10 0 10 3 0 15 -10 12 -10 15 3 15 11 0 14 5 10 17 -4 11 -8 12 -11 5 -2 -8
-9 -9 -22 -2 -13 7 -21 7 -25 0 -4 -6 -11 -7 -17 -4 -6 4 -8 3 -5 -3 7 -12
-28 -43 -48 -43 -8 0 -15 -5 -15 -11 0 -6 -6 -9 -14 -6 -8 3 -17 -1 -20 -9 -9
-22 -23 -9 -28 26 -3 20 0 30 8 30 7 0 16 5 20 12 4 6 3 8 -4 4 -6 -3 -14 -2
-17 4 -4 6 -3 10 2 9 20 -3 34 2 28 11 -4 6 -3 10 2 9 4 -1 11 0 16 1 4 1 11
3 15 4 5 0 17 9 27 19 9 10 24 16 33 12 12 -4 13 -3 2 10 -10 12 -10 15 4 15
11 0 14 4 10 13 -6 9 -4 9 8 -1 14 -11 16 -10 14 12 -2 14 1 23 8 20 13 -4 25
4 46 30 12 16 12 18 1 11 -10 -5 -12 -4 -7 3 4 7 15 12 24 12 15 0 15 2 2 10
-13 8 -13 10 2 10 11 0 15 6 11 20 -3 11 -1 20 5 20 5 0 13 7 16 16 4 9 2 13
-5 8 -7 -4 -7 0 1 15 6 12 16 19 23 15 9 -5 9 -4 0 6 -10 11 -9 16 5 26 12 10
13 13 3 14 -11 0 -11 3 -1 15 6 8 9 18 6 23 -3 4 8 16 25 26 16 9 29 23 29 29
0 7 -4 6 -11 -3 -9 -13 -10 -13 -6 0 2 8 10 14 17 12 19 -4 39 18 35 40 -4 16
-2 18 11 7 12 -10 13 -9 8 5 -4 11 -1 16 12 17 11 0 14 3 7 6 -10 3 -9 8 2 20
8 8 15 25 15 39 0 13 4 24 9 24 5 0 7 9 4 20 -3 13 0 20 8 20 11 0 11 2 -1 10
-12 7 -12 10 -1 10 8 0 11 6 7 16 -4 10 -2 13 6 8 7 -5 9 1 6 19 -3 15 -1 24
3 21 4 -2 13 5 19 16 6 11 8 20 4 20 -3 0 1 12 11 26 9 15 13 24 8 21 -5 -4
-10 0 -10 8 0 8 5 11 10 8 6 -4 8 1 4 11 -4 10 -1 19 9 23 8 3 13 12 10 20 -4
9 -2 11 6 7 7 -5 9 0 6 14 -4 16 -2 22 9 22 13 0 13 3 3 15 -9 11 -9 15 -1 15
9 0 9 5 1 20 -8 16 -8 18 4 14 11 -4 13 0 9 17 -5 16 -3 20 6 14 10 -6 11 -3
2 12 -7 14 -7 23 1 31 9 9 9 12 -1 12 -7 0 -9 5 -4 13 12 19 12 37 1 37 -6 0
-8 12 -5 26 2 15 0 28 -8 30 -12 5 -17 34 -5 34 8 0 6 32 -3 47 -4 6 -3 22 2
35 5 14 6 31 1 38 -4 7 -4 26 0 41 5 17 5 31 -1 34 -5 4 -5 14 1 25 7 13 7 21
0 25 -8 5 -8 11 0 20 8 10 8 15 0 20 -8 5 -8 10 0 20 8 10 8 15 0 20 -8 5 -8
10 0 20 7 9 8 15 1 19 -6 4 -8 13 -5 20 3 7 -2 20 -10 28 -9 9 -11 19 -6 24 6
6 4 20 -4 36 -10 18 -11 29 -3 37 7 7 5 12 -6 17 -12 4 -14 11 -7 24 5 9 6 21
2 24 -13 14 -30 86 -21 92 11 6 12 24 2 23 -20 -3 -24 2 -14 15 9 11 9 16 0
22 -8 5 -9 3 -4 -6 5 -9 4 -11 -4 -6 -9 6 -9 11 -1 21 8 9 8 15 0 20 -6 4 -9
14 -8 23 2 9 -2 16 -9 15 -6 -1 -10 5 -8 15 1 9 -3 20 -9 24 -7 5 -6 8 3 8 11
0 10 4 -3 19 -9 10 -18 28 -19 39 0 11 -5 18 -9 16 -7 -4 -10 10 -7 32 0 4 -4
10 -11 14 -6 4 -12 17 -13 28 -1 12 -6 22 -11 22 -5 0 -6 3 -3 7 4 3 1 13 -6
21 -9 13 -9 14 0 8 9 -5 11 -2 7 8 -3 9 -10 16 -14 16 -4 0 -11 7 -14 16 -4
10 -2 13 7 8 8 -6 8 -3 -1 9 -8 9 -11 20 -8 26 3 5 0 12 -6 14 -10 4 -9 8 2
16 8 6 10 11 4 11 -5 0 -15 -5 -21 -11 -9 -9 -10 -7 -6 10 3 14 1 21 -8 21
-11 0 -11 2 1 10 11 7 11 10 2 10 -8 0 -10 5 -6 12 5 8 2 9 -11 4 -16 -6 -16
-4 -4 11 12 14 12 16 -1 11 -12 -4 -16 1 -18 20 -1 14 -6 28 -11 31 -4 3 -11
16 -15 29 -4 12 -11 20 -15 17 -5 -2 -7 6 -6 19 2 17 -3 26 -17 29 -15 4 -19
11 -15 26 3 12 0 24 -5 28 -7 4 -8 1 -3 -8 7 -12 6 -12 -7 -1 -10 8 -14 20
-11 29 5 12 2 15 -10 10 -11 -4 -14 -2 -10 8 3 9 -4 18 -18 24 -13 5 -18 10
-11 10 6 1 12 6 12 12 0 5 -4 7 -10 4 -5 -3 -10 3 -10 14 0 13 -7 21 -16 21
-10 0 -14 5 -10 16 3 8 2 12 -4 9 -6 -3 -10 -1 -10 4 0 6 -17 27 -37 47 -21
20 -32 33 -25 29 6 -3 12 -1 12 5 0 6 -6 13 -14 16 -8 3 -17 16 -20 30 -6 21
-22 30 -49 25 -5 -1 -6 3 -3 8 10 15 -6 43 -21 37 -8 -3 -11 -1 -8 4 3 5 -7
13 -22 16 -24 6 -25 8 -8 14 17 6 16 8 -8 13 -17 5 -24 12 -21 21 6 17 -29 40
-67 45 -5 0 -7 6 -3 13 5 8 2 9 -9 5 -9 -3 -16 -3 -14 1 1 4 -8 20 -20 36 -13
16 -23 23 -23 17 0 -7 -5 -9 -10 -6 -8 5 -7 11 1 21 10 12 9 13 -4 8 -16 -6
-60 30 -50 40 4 3 -5 6 -18 6 -23 0 -56 35 -51 53 1 5 -2 6 -8 2 -8 -5 -7 -11
1 -21 10 -12 9 -13 -5 -8 -9 3 -16 16 -16 28 0 17 -2 18 -10 6 -9 -13 -10 -13
-10 0 0 9 -14 21 -30 27 -18 7 -28 7 -24 1 8 -12 -38 13 -48 27 -5 6 -12 4
-19 -5 -8 -12 -9 -11 -4 6 4 15 0 24 -10 28 -11 4 -14 2 -10 -7 4 -6 -1 -3
-10 8 -9 11 -23 19 -31 17 -8 -2 -14 3 -14 10 0 9 -3 9 -10 -2 -7 -11 -10 -11
-10 -2 0 7 -4 10 -10 7 -5 -3 -10 -2 -10 4 0 10 -38 27 -52 23 -5 -1 -8 2 -8
7 0 6 -12 6 -30 1 -20 -6 -30 -5 -30 2 0 5 -7 7 -16 4 -8 -3 -13 -2 -10 3 7
10 -22 25 -41 22 -7 -1 -13 2 -13 7 0 5 -7 9 -15 9 -8 0 -15 -5 -15 -10 0 -5
-7 -4 -15 3 -8 7 -15 9 -15 5 0 -4 -6 -3 -12 2 -7 5 -30 9 -50 9 -21 -1 -38 3
-38 8 0 5 -8 2 -17 -5 -9 -8 -14 -9 -10 -3 6 11 -18 29 -34 26 -4 -1 -22 -2
-40 -2 -33 -1 -53 2 -114 15 -33 8 -37 8 -77 2 -16 -2 -28 -1 -28 2 0 7 -31 9
-49 3z m1273 -491 c-2 -3 -12 3 -22 13 -16 17 -16 18 5 5 12 -7 20 -15 17 -18z
m-2898 -123 c4 -7 3 -8 -4 -4 -7 4 -12 2 -12 -5 0 -7 -3 -10 -6 -6 -6 5 3 27
11 27 2 0 7 -5 11 -12z m-219 -253 c0 -8 -4 -12 -9 -9 -5 3 -6 10 -3 15 9 13
12 11 12 -6z m-77 -99 c0 -2 -8 -10 -17 -17 -16 -13 -17 -12 -4 4 13 16 21 21
21 13z m3730 -2140 c0 -3 -4 -8 -10 -11 -5 -3 -10 -1 -10 4 0 6 5 11 10 11 6
0 10 -2 10 -4z m-236 -491 c-4 -8 -11 -15 -16 -15 -6 0 -5 6 2 15 7 8 14 15
16 15 2 0 1 -7 -2 -15z m-40 -140 c-4 -8 -11 -12 -16 -9 -6 4 -5 10 3 15 19
12 19 11 13 -6z m-24 -18 c0 -2 -10 -12 -22 -23 l-23 -19 19 23 c18 21 26 27
26 19z m-467 -592 c-3 -9 -8 -14 -10 -11 -3 3 -2 9 2 15 9 16 15 13 8 -4z
m240 -3310 c-3 -9 -8 -14 -10 -11 -3 3 -2 9 2 15 9 16 15 13 8 -4z m1007 -606
c0 -6 -4 -7 -10 -4 -5 3 -10 11 -10 16 0 6 5 7 10 4 6 -3 10 -11 10 -16z"/>
<path d="M7675 8770 c21 -24 26 -25 19 -6 -3 8 -13 17 -22 21 -13 5 -13 2 3
-15z"/>
<path d="M7276 5232 c-3 -5 1 -9 9 -9 8 0 12 4 9 9 -3 4 -7 8 -9 8 -2 0 -6 -4
-9 -8z"/>
<path d="M8086 3325 c-3 -8 -1 -15 3 -15 5 0 11 7 15 15 3 8 1 15 -3 15 -5 0
-11 -7 -15 -15z"/>
<path d="M7381 1954 c0 -11 3 -14 6 -6 3 7 2 16 -1 19 -3 4 -6 -2 -5 -13z"/>
<path d="M8574 1738 c-4 -7 -4 -10 1 -6 4 4 15 2 24 -5 14 -11 14 -10 2 6 -16
20 -18 21 -27 5z"/>
<path d="M8790 1726 c0 -2 7 -7 16 -10 8 -3 12 -2 9 4 -6 10 -25 14 -25 6z"/>
<path d="M9415 1580 c3 -5 8 -10 11 -10 2 0 4 5 4 10 0 6 -5 10 -11 10 -5 0
-7 -4 -4 -10z"/>
<path d="M9424 1160 c0 -10 6 -16 13 -13 7 3 13 9 13 13 0 4 -6 10 -13 13 -7
3 -13 -3 -13 -13z"/>
<path d="M9386 1135 c4 -8 11 -15 16 -15 6 0 5 6 -2 15 -7 8 -14 15 -16 15 -2
0 -1 -7 2 -15z"/>
<path d="M9346 1109 c2 -4 -1 -9 -8 -11 -7 -3 -5 -7 6 -11 9 -4 15 -3 11 2 -3
6 3 14 12 20 16 9 16 10 -4 8 -12 0 -20 -4 -17 -8z"/>
<path d="M9310 1069 c0 -5 -4 -8 -8 -5 -4 2 -14 0 -22 -5 -11 -7 -10 -8 8 -6
25 4 55 27 34 27 -7 0 -12 -5 -12 -11z"/>
<path d="M9250 1041 c0 -5 7 -12 16 -15 14 -5 15 -4 4 9 -14 17 -20 19 -20 6z"/>
<path d="M9225 1021 c-6 -11 13 -26 22 -17 4 3 1 6 -6 6 -7 0 -9 5 -6 10 3 6
4 10 1 10 -3 0 -7 -4 -11 -9z"/>
<path d="M9195 979 c-11 -16 -1 -19 13 -3 7 8 8 14 3 14 -5 0 -13 -5 -16 -11z"/>
<path d="M9147 949 c7 -7 15 -10 18 -7 3 3 -2 9 -12 12 -14 6 -15 5 -6 -5z"/>
<path d="M9108 933 c6 -2 10 -9 7 -14 -4 -5 1 -6 10 -2 13 5 14 7 3 14 -7 5
-17 8 -23 8 -5 0 -4 -3 3 -6z"/>
<path d="M9056 889 c3 -5 0 -9 -7 -9 -7 0 -9 -3 -6 -6 4 -4 13 -2 20 4 8 7 16
11 18 9 2 -1 3 0 1 2 -1 3 -9 6 -17 7 -8 1 -13 -2 -9 -7z"/>
<path d="M9005 860 c-3 -5 -5 -10 -3 -11 29 -7 36 -5 31 7 -6 16 -19 18 -28 4z"/>
<path d="M8970 831 c0 -6 4 -13 10 -16 6 -3 7 1 4 9 -7 18 -14 21 -14 7z"/>
</g>
</svg>
